<?xml version="1.0" encoding="UTF-8"?>
<svg version="1.1" xmlns="http://www.w3.org/2000/svg" width="512" height="512">
<path d="M0 0 C0.86431641 -0.02449219 1.72863281 -0.04898438 2.61914062 -0.07421875 C10.9347372 -0.11187428 17.35195105 2.85436758 23.515625 8.41015625 C32.06874817 18.46207436 32.34346333 29.47035743 32.35546875 41.95703125 C32.35879715 43.1663884 32.36212555 44.37574554 32.36555481 45.62174988 C32.3706055 48.17434307 32.37296371 50.72694283 32.37280273 53.27954102 C32.37498661 57.16368611 32.39315537 61.04754581 32.41210938 64.93164062 C32.41504428 67.41926987 32.41702843 69.90690045 32.41796875 72.39453125 C32.42515427 73.54589066 32.43233978 74.69725006 32.43974304 75.88349915 C32.40863896 86.98215707 31.26059261 96.47034867 24.1875 105.375 C20.82025524 108.48757919 17.30137262 111.31806369 13.1875 113.375 C15.00824565 115.19574565 17.61988628 114.89745493 20.06689453 115.22436523 C28.03670351 116.3042112 35.64684244 117.86308646 43.3125 120.3125 C44.06837402 120.55315186 44.82424805 120.79380371 45.60302734 121.04174805 C50.9556969 122.81752358 56.07235363 125.00587164 61.1875 127.375 C60.83816406 126.68792969 60.48882812 126.00085938 60.12890625 125.29296875 C59.67386719 124.39191406 59.21882813 123.49085937 58.75 122.5625 C58.29753906 121.66917969 57.84507812 120.77585937 57.37890625 119.85546875 C54.03444051 112.89240074 54.17167928 104.26409395 55.73046875 96.76171875 C58.24381406 89.9296674 62.38512526 83.71498752 66.1328125 77.5 C68.45558657 73.63545158 70.70396682 69.73373928 72.9296875 65.8125 C73.90748169 64.09450195 73.90748169 64.09450195 74.9050293 62.34179688 C76.1901071 60.08028927 77.47044753 57.81608118 78.74536133 55.54882812 C88.72557863 38.05846733 88.72557863 38.05846733 96.375 33.875 C97.19355469 33.4109375 98.01210938 32.946875 98.85546875 32.46875 C106.08192133 29.07945901 115.46814638 29.28543947 123.1484375 31.05859375 C132.6600668 34.58521323 137.95603801 40.30049752 142.1875 49.375 C142.620625 50.303125 143.05375 51.23125 143.5 52.1875 C146.68669083 66.96215748 140.64060599 78.25913092 133.25 90.6875 C132.24521391 92.39487534 131.24043128 94.10225275 130.23596191 95.80981445 C129.55530757 96.96509604 128.87325942 98.11955757 128.18981934 99.27319336 C125.95516541 103.0482398 123.77788232 106.85141433 121.62890625 110.67578125 C120.52345489 112.6171974 119.41798699 114.55860414 118.3125 116.5 C117.826604 117.38083252 117.34070801 118.26166504 116.84008789 119.16918945 C111.87595169 127.77430209 105.2995897 134.31868025 95.828125 137.69921875 C91.32954916 138.8504815 86.81648288 139.19899305 82.1875 139.375 C82.86554688 139.92027344 83.54359375 140.46554688 84.2421875 141.02734375 C96.46556863 150.93132984 108.38647982 161.17346973 117.1875 174.375 C117.31705078 172.90740234 117.31705078 172.90740234 117.44921875 171.41015625 C118.72342353 159.52147497 121.34330339 152.44192488 130.46459961 144.49584961 C135.43821366 140.6219336 140.92801338 137.6585718 146.4375 134.625 C147.67595862 133.93317379 148.9138261 133.24028838 150.15112305 132.54638672 C152.0238133 131.49674399 153.89707274 130.44824556 155.772995 129.40438843 C159.68761852 127.22544144 163.57328006 125.00313009 167.44140625 122.7421875 C168.85921387 121.91605957 168.85921387 121.91605957 170.30566406 121.07324219 C172.04880165 120.05541157 173.78923383 119.03292733 175.52636719 118.00488281 C184.48160318 112.81638526 193.63210535 110.46169143 203.90234375 113.0625 C212.97701596 116.41831099 219.98789304 121.52001478 224.1875 130.375 C227.46679441 138.64251689 227.64620934 148.49758963 224.5625 156.875 C219.91392712 166.50531992 212.78422906 170.80520906 203.74169922 175.92480469 C200.76755576 177.61343135 197.80741783 179.32535485 194.84765625 181.0390625 C189.35470741 184.21828139 183.85582685 187.38690879 178.35009766 190.54394531 C176.20032788 191.78860127 174.05961054 193.04899715 171.92724609 194.32324219 C170.88262207 194.94618164 169.83799805 195.56912109 168.76171875 196.2109375 C167.368927 197.05084229 167.368927 197.05084229 165.94799805 197.90771484 C157.69607467 202.29385259 148.11588491 202.96189091 139.09375 200.546875 C135.48170181 199.12330307 132.42171834 197.53114556 129.1875 195.375 C129.75017578 196.68597656 129.75017578 196.68597656 130.32421875 198.0234375 C136.35297986 212.38036564 140.51670599 226.86404668 142.1875 242.375 C142.77273438 241.63378906 143.35796875 240.89257812 143.9609375 240.12890625 C151.45335103 230.86197372 158.26049195 226.11235893 170.1875 224.375 C172.07363611 224.28428733 173.96228486 224.23730225 175.85058594 224.22973633 C176.93901794 224.22335648 178.02744995 224.21697662 179.14886475 224.21040344 C180.31145813 224.20929062 181.47405151 224.2081778 182.671875 224.20703125 C183.88264709 224.20370285 185.09341919 224.20037445 186.34088135 224.19694519 C188.8994509 224.19188999 191.45802702 224.18953643 194.01660156 224.18969727 C197.9096172 224.18751563 201.80234713 224.16935787 205.6953125 224.15039062 C208.18749904 224.14745536 210.67968691 224.14547146 213.171875 224.14453125 C214.32637146 224.13734573 215.48086792 224.13016022 216.67034912 224.12275696 C228.7997304 224.15665 239.28801396 225.59223459 248.265625 234.41796875 C254.31988287 241.60422021 256.83133665 249.50353527 256.46484375 258.87109375 C255.50566584 267.53071408 252.43215733 274.23598537 246.1875 280.375 C236.30712225 288.11683962 225.73384473 288.68472721 213.56640625 288.640625 C212.38586166 288.64253845 211.20531708 288.6444519 209.98899841 288.64642334 C207.50560288 288.64777739 205.02220008 288.64413581 202.53881836 288.63574219 C198.7646473 288.62504153 194.99095322 288.63565958 191.21679688 288.6484375 C188.79166563 288.64711558 186.36653468 288.64455252 183.94140625 288.640625 C182.82649307 288.64467346 181.7115799 288.64872192 180.56288147 288.65289307 C169.45358606 288.58731782 159.86373787 287.85845941 151.1875 280.375 C148.70239619 277.8186217 146.43505533 275.13930628 144.1875 272.375 C143.5275 271.715 142.8675 271.055 142.1875 270.375 C142.04054688 271.44234375 141.89359375 272.5096875 141.7421875 273.609375 C140.4736594 282.23830478 138.76071537 290.5789825 136.25 298.9375 C136.00942871 299.74477539 135.76885742 300.55205078 135.52099609 301.38378906 C133.80537561 306.90974912 131.64241231 312.13790581 129.1875 317.375 C129.87457031 317.02566406 130.56164062 316.67632812 131.26953125 316.31640625 C132.17058594 315.86136719 133.07164062 315.40632813 134 314.9375 C134.89332031 314.48503906 135.78664063 314.03257812 136.70703125 313.56640625 C143.67009926 310.22194051 152.29840605 310.35917928 159.80078125 311.91796875 C166.6328326 314.43131406 172.84751248 318.57262526 179.0625 322.3203125 C182.92704842 324.64308657 186.82876072 326.89146682 190.75 329.1171875 C192.46799805 330.09498169 192.46799805 330.09498169 194.22070312 331.0925293 C196.48221073 332.3776071 198.74641882 333.65794753 201.01367188 334.93286133 C218.50403267 344.91307863 218.50403267 344.91307863 222.6875 352.5625 C223.1515625 353.38105469 223.615625 354.19960938 224.09375 355.04296875 C227.48187248 362.26692989 227.30774178 371.7052965 225.46875 379.37109375 C222.17953189 388.08486915 216.56948926 394.30082406 208.16015625 398.3515625 C197.67824369 402.40785416 188.22043108 400.74030543 178.1875 396.375 C173.98886362 394.21659961 169.93212245 391.84965995 165.875 389.4375 C164.16864546 388.43487401 162.4622899 387.43224974 160.75584412 386.42977905 C159.02656819 385.41199884 157.29986397 384.38995054 155.57324219 383.36767578 C152.34647702 381.4685658 149.10333259 379.60198454 145.8515625 377.74609375 C143.90090159 376.62263901 141.95037397 375.4989528 140 374.375 C139.11078857 373.87234619 138.22157715 373.36969238 137.30541992 372.85180664 C129.34406175 368.21540965 121.98725634 362.49179453 119.1875 353.375 C118.30082913 348.38937638 117.68601277 343.41260275 117.1875 338.375 C116.64222656 339.05304688 116.09695313 339.73109375 115.53515625 340.4296875 C105.63117016 352.65306863 95.38903027 364.57397982 82.1875 373.375 C82.84234375 373.38917969 83.4971875 373.40335937 84.171875 373.41796875 C94.42842462 373.95397487 103.23859501 376.72314901 110.42871094 384.25097656 C113.72693249 388.23411475 116.17097248 392.68546211 118.6875 397.1875 C119.90212406 399.32043762 121.11697623 401.45324535 122.33203125 403.5859375 C122.95803223 404.69291992 123.5840332 405.79990234 124.22900391 406.94042969 C126.23043286 410.45029038 128.27058155 413.93465497 130.32421875 417.4140625 C131.008109 418.57819501 131.69170546 419.74250016 132.375 420.90698242 C133.67839615 423.12635167 134.98675326 425.34281719 136.30078125 427.5559082 C142.04457548 437.4109599 145.54740281 445.80071604 144.1875 457.375 C141.62065505 467.06276966 136.88638817 473.68073492 128.56640625 479.11328125 C120.47668283 483.40388989 111.04398841 483.79127497 102.19921875 481.65234375 C94.72098087 478.84942303 89.54717142 474.55107465 85.3125 467.8125 C84.77326904 466.95519287 84.77326904 466.95519287 84.22314453 466.08056641 C77.8776841 455.8246807 72.04324423 445.24037541 66.11230469 434.74121094 C63.68153818 430.49014439 61.17023275 426.28899039 58.63720703 422.09814453 C54.25545597 413.86741847 53.60730696 404.27836268 56.015625 395.28125 C57.43919693 391.66920181 59.03135444 388.60921834 61.1875 385.375 C60.31351562 385.75011719 59.43953125 386.12523437 58.5390625 386.51171875 C44.18213436 392.54047986 29.69845332 396.70420599 14.1875 398.375 C15.31478516 399.26251953 15.31478516 399.26251953 16.46484375 400.16796875 C25.77483395 407.71480442 30.51716277 414.43411692 32.1875 426.375 C32.46568713 430.71810141 32.49170712 435.04735811 32.48828125 439.3984375 C32.49256638 440.6210025 32.4968515 441.8435675 32.50126648 443.10317993 C32.5069822 445.67652775 32.50753052 448.24989171 32.50317383 450.82324219 C32.50001503 454.73140384 32.52350534 458.63880672 32.54882812 462.546875 C32.55110171 465.05989489 32.55180434 467.57291679 32.55078125 470.0859375 C32.559991 471.23943695 32.56920074 472.3929364 32.57868958 473.58139038 C32.50773668 486.20274581 30.40667017 495.93552651 21.5234375 505.08984375 C14.49717246 511.65089947 7.4720743 512.87296696 -1.87866211 512.79467773 C-11.75184824 512.43533767 -18.05487354 508.33228361 -24.8125 501.375 C-32.2208292 492.76532012 -32.26019983 480.63451712 -32.17578125 469.83203125 C-32.17652901 467.95846199 -32.17652901 467.95846199 -32.17729187 466.04704285 C-32.17496664 463.42595821 -32.16533082 460.80487068 -32.14868164 458.18383789 C-32.13285942 455.5137967 -32.12354117 452.84500237 -32.12817383 450.17504883 C-32.13461234 446.28976314 -32.1266412 442.40479485 -32.11328125 438.51953125 C-32.11419266 437.33494827 -32.11510406 436.1503653 -32.11604309 434.92988586 C-32.02529206 424.24969293 -30.81833354 415.7728223 -23.8125 407.375 C-21.26052439 404.88468922 -18.57707338 402.6227725 -15.8125 400.375 C-15.1525 399.715 -14.4925 399.055 -13.8125 398.375 C-14.87984375 398.22804688 -15.9471875 398.08109375 -17.046875 397.9296875 C-25.67580478 396.6611594 -34.0164825 394.94821537 -42.375 392.4375 C-43.18227539 392.19692871 -43.98955078 391.95635742 -44.82128906 391.70849609 C-50.34724912 389.99287561 -55.57540581 387.82991231 -60.8125 385.375 C-60.46316406 386.06207031 -60.11382812 386.74914062 -59.75390625 387.45703125 C-59.29886719 388.35808594 -58.84382812 389.25914062 -58.375 390.1875 C-57.92253906 391.08082031 -57.47007812 391.97414063 -57.00390625 392.89453125 C-53.65944051 399.85759926 -53.79667928 408.48590605 -55.35546875 415.98828125 C-57.86881406 422.8203326 -62.01012526 429.03501248 -65.7578125 435.25 C-68.08058657 439.11454842 -70.32896682 443.01626072 -72.5546875 446.9375 C-73.53248169 448.65549805 -73.53248169 448.65549805 -74.5300293 450.40820312 C-75.8151071 452.66971073 -77.09544753 454.93391882 -78.37036133 457.20117188 C-85.09106242 468.97922073 -91.21417292 478.58665827 -104.8125 482.375 C-113.57641796 483.20414955 -121.2219409 483.05919431 -128.8125 478.375 C-129.43511719 478.03597656 -130.05773437 477.69695312 -130.69921875 477.34765625 C-137.08889579 473.45286395 -140.04882076 467.06269295 -143.1875 460.5 C-146.15265267 445.67423663 -140.29647423 434.54501788 -132.875 422.0625 C-131.87237401 420.35614546 -130.86974974 418.6497899 -129.86727905 416.94334412 C-128.84949884 415.21406819 -127.82745054 413.48736397 -126.80517578 411.76074219 C-124.9060658 408.53397702 -123.03948454 405.29083259 -121.18359375 402.0390625 C-120.06013901 400.08840159 -118.9364528 398.13787397 -117.8125 396.1875 C-117.05851929 394.85368286 -117.05851929 394.85368286 -116.28930664 393.49291992 C-111.65290965 385.53156175 -105.92929453 378.17475634 -96.8125 375.375 C-91.82687638 374.48832913 -86.85010275 373.87351277 -81.8125 373.375 C-82.39515625 372.92511719 -82.9778125 372.47523438 -83.578125 372.01171875 C-96.04354228 362.23146211 -107.96173789 351.65114317 -116.8125 338.375 C-116.83828125 339.05304688 -116.8640625 339.73109375 -116.890625 340.4296875 C-117.60952588 352.22619741 -121.20791801 360.21693661 -129.8125 368.375 C-133.28280518 370.88427133 -136.93277373 372.94765602 -140.6875 375 C-142.81143348 376.19619642 -144.9351224 377.39282716 -147.05859375 378.58984375 C-148.15929199 379.20327637 -149.25999023 379.81670898 -150.39404297 380.44873047 C-153.90390726 382.42650716 -157.37913608 384.45495946 -160.84765625 386.50390625 C-162.01240357 387.1888587 -163.17727878 387.87359372 -164.34228516 388.55810547 C-166.56208892 389.86377884 -168.77934996 391.17378791 -170.99365234 392.48876953 C-180.8491668 398.23173214 -189.23807263 401.73491966 -200.8125 400.375 C-210.50026966 397.80815505 -217.11823492 393.07388817 -222.55078125 384.75390625 C-226.84467763 376.65798398 -227.18798652 367.28333983 -225.125 358.421875 C-221.01778962 347.26395346 -213.30036263 342.4493227 -203.36669922 336.82519531 C-200.39255576 335.13656865 -197.43241783 333.42464515 -194.47265625 331.7109375 C-188.97970741 328.53171861 -183.48082685 325.36309121 -177.97509766 322.20605469 C-175.82532788 320.96139873 -173.68461054 319.70100285 -171.55224609 318.42675781 C-169.98531006 317.49234863 -169.98531006 317.49234863 -168.38671875 316.5390625 C-167.45819092 315.97912598 -166.52966309 315.41918945 -165.57299805 314.84228516 C-157.32107467 310.45614741 -147.74088491 309.78810909 -138.71875 312.203125 C-135.10670181 313.62669693 -132.04671834 315.21885444 -128.8125 317.375 C-129.18761719 316.58480469 -129.56273437 315.79460937 -129.94921875 314.98046875 C-135.93649408 301.78433296 -139.64226725 288.02664803 -141.453125 273.6484375 C-141.57804782 271.41344252 -141.57804782 271.41344252 -142.8125 270.375 C-143.16441406 270.88289063 -143.51632813 271.39078125 -143.87890625 271.9140625 C-150.02862206 280.4883399 -156.1038279 285.95937747 -166.6628418 287.8984375 C-172.21179077 288.66662614 -177.80358003 288.53759328 -183.39453125 288.54296875 C-184.6038884 288.54629715 -185.81324554 288.54962555 -187.05924988 288.55305481 C-189.61184307 288.5581055 -192.16444283 288.56046371 -194.71704102 288.56030273 C-198.60118611 288.56248661 -202.48504581 288.58065537 -206.36914062 288.59960938 C-208.85676987 288.60254428 -211.34440045 288.60452843 -213.83203125 288.60546875 C-214.98339066 288.61265427 -216.13475006 288.61983978 -217.32099915 288.62724304 C-228.43746996 288.59608904 -237.88390619 287.43412275 -246.8125 280.375 C-253.95047693 272.88078393 -256.17251187 266.74693465 -256.1875 256.5625 C-256.21199219 255.69818359 -256.23648437 254.83386719 -256.26171875 253.94335938 C-256.29937428 245.6277628 -253.33313242 239.21054895 -247.77734375 233.046875 C-237.69122476 224.4646505 -226.61129809 224.21726836 -214.08203125 224.171875 C-212.85522141 224.16617493 -211.62841156 224.16047485 -210.36442566 224.15460205 C-207.7731512 224.1451774 -205.18186489 224.13862818 -202.59057617 224.13476562 C-198.65587092 224.12507602 -194.72169188 224.09403382 -190.78710938 224.0625 C-188.26041974 224.05596738 -185.7337264 224.05071793 -183.20703125 224.046875 C-182.04412064 224.0345282 -180.88121002 224.0221814 -179.68305969 224.00946045 C-168.47818204 224.03954676 -158.143805 225.35913416 -149.8125 233.375 C-144.54752304 238.90495392 -144.54752304 238.90495392 -142.8125 242.375 C-141.28278911 240.84528911 -141.3789416 239.21717602 -141.05078125 237.09765625 C-138.68683019 222.59910338 -135.70952484 208.47320742 -128.8125 195.375 C-129.49957031 195.72433594 -130.18664062 196.07367188 -130.89453125 196.43359375 C-131.79558594 196.88863281 -132.69664062 197.34367188 -133.625 197.8125 C-134.51832031 198.26496094 -135.41164063 198.71742188 -136.33203125 199.18359375 C-143.29509926 202.52805949 -151.92340605 202.39082072 -159.42578125 200.83203125 C-166.2578326 198.31868594 -172.47251248 194.17737474 -178.6875 190.4296875 C-182.55204842 188.10691343 -186.45376072 185.85853318 -190.375 183.6328125 C-192.09299805 182.65501831 -192.09299805 182.65501831 -193.84570312 181.6574707 C-196.10721073 180.3723929 -198.37141882 179.09205247 -200.63867188 177.81713867 C-218.12903267 167.83692137 -218.12903267 167.83692137 -222.3125 160.1875 C-222.7765625 159.36894531 -223.240625 158.55039063 -223.71875 157.70703125 C-227.10687248 150.48307011 -226.93274178 141.0447035 -225.09375 133.37890625 C-221.80453189 124.66513085 -216.19448926 118.44917594 -207.78515625 114.3984375 C-197.30324369 110.34214584 -187.84543108 112.00969457 -177.8125 116.375 C-173.61387148 118.53339634 -169.55693007 120.90002162 -165.5 123.3125 C-163.79262466 124.31728609 -162.08524725 125.32206872 -160.37768555 126.32653809 C-159.22240396 127.00719243 -158.06794243 127.68924058 -156.91430664 128.37268066 C-153.1392602 130.60733459 -149.33608567 132.78461768 -145.51171875 134.93359375 C-143.5703026 136.03904511 -141.62889586 137.14451301 -139.6875 138.25 C-138.80666748 138.735896 -137.92583496 139.22179199 -137.01831055 139.72241211 C-128.41319791 144.68654831 -121.86881975 151.2629103 -118.48828125 160.734375 C-117.3370185 165.23295084 -116.98850695 169.74601712 -116.8125 174.375 C-116.10287109 173.46621094 -116.10287109 173.46621094 -115.37890625 172.5390625 C-105.55675827 160.09384576 -95.09572044 148.23048029 -81.8125 139.375 C-82.49054688 139.34921875 -83.16859375 139.3234375 -83.8671875 139.296875 C-95.66369741 138.57797412 -103.65443661 134.97958199 -111.8125 126.375 C-114.32177133 122.90469482 -116.38515602 119.25472627 -118.4375 115.5 C-119.63369642 113.37606652 -120.83032716 111.2523776 -122.02734375 109.12890625 C-122.64077637 108.02820801 -123.25420898 106.92750977 -123.88623047 105.79345703 C-125.86400716 102.28359274 -127.89245946 98.80836392 -129.94140625 95.33984375 C-130.6263587 94.17509643 -131.31109372 93.01022122 -131.99560547 91.84521484 C-133.30127884 89.62541108 -134.61128791 87.40815004 -135.92626953 85.19384766 C-142.01233482 74.74953372 -146.24911389 64.91496284 -143.12109375 52.66796875 C-139.78727846 43.58715805 -134.66173592 36.57188027 -125.8125 32.375 C-117.54498311 29.09570559 -107.68991037 28.91629066 -99.3125 32 C-89.68218008 36.64857288 -85.38229094 43.77827094 -80.26269531 52.82080078 C-78.57406865 55.79494424 -76.86214515 58.75508217 -75.1484375 61.71484375 C-71.96921861 67.20779259 -68.80059121 72.70667315 -65.64355469 78.21240234 C-64.39889873 80.36217212 -63.13850285 82.50288946 -61.86425781 84.63525391 C-61.24131836 85.67987793 -60.61837891 86.72450195 -59.9765625 87.80078125 C-59.41662598 88.72930908 -58.85668945 89.65783691 -58.27978516 90.61450195 C-53.89364741 98.86642533 -53.22560909 108.44661509 -55.640625 117.46875 C-57.06419693 121.08079819 -58.65635444 124.14078166 -60.8125 127.375 C-60.14347656 127.07207031 -59.47445312 126.76914063 -58.78515625 126.45703125 C-45.30394135 120.57596435 -31.76654381 117.08895942 -17.25 114.953125 C-13.99086473 114.74671082 -13.99086473 114.74671082 -12.8125 113.375 C-13.39257812 113.0346875 -13.97265625 112.694375 -14.5703125 112.34375 C-22.6796308 107.31222577 -27.66407908 101.48885003 -30.8125 92.375 C-32.08617514 85.79425316 -31.97417798 79.22338999 -31.98046875 72.5390625 C-31.98379715 71.30513763 -31.98712555 70.07121277 -31.99055481 68.79989624 C-31.99560565 66.19602835 -31.99796371 63.59215403 -31.99780273 60.98828125 C-31.99998858 57.02072412 -32.01816258 53.05344548 -32.03710938 49.0859375 C-32.04004386 46.54948011 -32.04202829 44.01302141 -32.04296875 41.4765625 C-32.05015427 40.29816803 -32.05733978 39.11977356 -32.06474304 37.90567017 C-32.03463314 26.96508308 -30.67543061 18.18630498 -23.8125 9.375 C-16.32702378 2.23216882 -10.17840619 0.01497926 0 0 Z " fill="#020100" transform="translate(255.8125,-0.375)"/>
<path d="M0 0 C0.51949219 0.41266113 1.03898438 0.82532227 1.57421875 1.25048828 C29.95596085 23.96093809 46.99873368 55.21002025 51.6953125 91.13525391 C55.18285416 123.92597016 45.51759305 159.50526873 24.86108398 185.39672852 C23.58953029 186.9439999 22.29478424 188.47211542 21 190 C20.15824219 191.00546875 19.31648437 192.0109375 18.44921875 193.046875 C-0.89861256 215.49499527 -27.24372187 229.01567049 -56 235 C-57.40958984 235.33644531 -57.40958984 235.33644531 -58.84765625 235.6796875 C-83.52926251 240.86460047 -110.19785026 235.91597514 -133 226 C-133.69673828 225.70109863 -134.39347656 225.40219727 -135.11132812 225.09423828 C-146.20520717 220.23343678 -155.66865464 213.67642727 -165 206 C-165.82757813 205.32130859 -165.82757813 205.32130859 -166.671875 204.62890625 C-192.01353431 183.48994787 -207.56502978 151.77695302 -211.6875 119.3125 C-211.82132664 117.54366088 -211.91987918 115.7720841 -212 114 C-212.03254883 113.34 -212.06509766 112.68 -212.09863281 112 C-213.73876145 73.8297336 -199.53893262 41.41208254 -175.11328125 12.7890625 C-156.32269762 -7.22607602 -130.65385082 -19.81918308 -104 -25 C-102.91460937 -25.22558594 -101.82921875 -25.45117188 -100.7109375 -25.68359375 C-66.35319143 -31.98976233 -27.18968262 -21.72883344 0 0 Z " fill="#FEC006" transform="translate(336,151)"/>
<path d="M0 0 C4.95102294 1.80877371 9.44332499 4.38132185 14 7 C14.90717773 7.52029785 15.81435547 8.0405957 16.74902344 8.57666016 C21.92903394 11.56044761 27.08989186 14.57528786 32.23828125 17.61328125 C37.87901278 20.94062215 43.56938578 24.16939436 49.29296875 27.3515625 C55.5666739 31.17191398 59.37259492 35.11921373 62 42 C63.22081309 48.80919024 61.88427935 54.33173567 58 60 C53.26258757 65.61009367 48.667183 68.13832167 41.375 68.875 C31.98142651 68.62025902 24.66415082 63.45270031 16.85058594 58.71630859 C13.8206659 56.89202477 10.76294308 55.12335884 7.6953125 53.36328125 C-21.44380842 36.59927678 -21.44380842 36.59927678 -25.3125 28.125 C-26.92794664 20.78206074 -26.24045046 15.93675244 -22.703125 9.33984375 C-17.21923663 1.80578611 -8.99538892 -1.33873934 0 0 Z " fill="#FCBF06" transform="translate(410,321)"/>
<path d="M0 0 C3.48228547 1.7654318 6.86896492 3.67710052 10.24511719 5.63647461 C10.92058594 6.02158203 11.59605469 6.40668945 12.29199219 6.8034668 C16.53497739 9.22658382 20.72996398 11.72240314 24.91357422 14.24633789 C27.44546493 15.75592802 29.99761336 17.22686803 32.55371094 18.69506836 C34.34678606 19.73785422 36.13975661 20.78081992 37.93261719 21.82397461 C39.18896973 22.53602051 39.18896973 22.53602051 40.47070312 23.26245117 C46.58056259 26.85313812 51.11474218 30.85990073 54.62011719 37.07397461 C56.44146692 44.54150852 55.05760111 50.11150212 51.24511719 56.63647461 C47.25061861 61.62959783 42.41910626 64.50949756 36.29199219 66.16381836 C24.52279529 67.44405543 10.5919005 56.25675535 0.90527344 50.40991211 C-2.52837437 48.34296871 -6.00494454 46.37102436 -9.50878906 44.42553711 C-10.49282715 43.86954834 -11.47686523 43.31355957 -12.49072266 42.74072266 C-14.40773829 41.65821929 -16.33350064 40.59100999 -18.26904297 39.54199219 C-25.44757284 35.43969538 -30.10605879 30.58294669 -32.75488281 22.63647461 C-33.76978916 15.63490552 -32.54093278 10.69205287 -28.57128906 4.84350586 C-21.04596255 -4.30017045 -10.41107485 -4.86153059 0 0 Z " fill="#FCBF06" transform="translate(72.7548828125,125.363525390625)"/>
<path d="M0 0 C8.24229841 4.85573472 12.38496053 13.46698499 16.9375 21.5625 C17.92272609 23.29308385 18.90795478 25.02366623 19.89346313 26.75408936 C20.88929688 28.50547671 21.88162651 30.25880644 22.87304688 32.01269531 C24.71287192 35.26157065 26.5643756 38.50339147 28.421875 41.7421875 C30.48941308 45.34757378 32.55663544 48.95311524 34.6171875 52.5625 C35.01921387 53.26632812 35.42124023 53.97015625 35.83544922 54.6953125 C38.79086486 59.96513909 38.21056797 65.50266844 37.8125 71.4375 C35.59641773 77.9691109 30.88807264 82.32182173 24.8125 85.4375 C18.37507925 87.30899758 12.80382658 87.36552863 6.75 84.25 C1.11745682 80.46913386 -1.67843096 75.66713438 -4.88378906 69.79541016 C-7.11018785 65.76871363 -9.44140279 61.80248165 -11.7512207 57.82324219 C-14.29463638 53.43540745 -16.81808004 49.03625581 -19.34033203 44.63623047 C-21.76614598 40.43546198 -24.23982614 36.26338777 -26.72241211 32.09594727 C-29.98985715 26.16706725 -31.28064832 21.1720745 -30.1875 14.4375 C-27.36208674 7.27009136 -23.17542055 2.64091774 -16.1875 -0.5625 C-10.7121432 -2.38761893 -5.31037937 -2.38967072 0 0 Z " fill="#FCBF06" transform="translate(351.1875,385.5625)"/>
<path d="M0 0 C5.13390416 3.00953002 8.96076991 7.61673765 11.0390625 13.1953125 C13.09069524 22.28111465 8.40173477 29.59692367 4.0390625 37.1953125 C3.52939941 38.08653809 3.01973633 38.97776367 2.49462891 39.89599609 C-0.45462389 45.03177862 -3.44090931 50.14381331 -6.4609375 55.23828125 C-8.62731897 58.89756684 -10.73892266 62.5744606 -12.7734375 66.30859375 C-17.70772032 75.27873151 -21.78598883 81.80366294 -31.9609375 85.1953125 C-39.06580856 86.22519289 -43.8708218 84.8713234 -49.82421875 80.91796875 C-54.23100595 77.36514763 -56.33551181 73.33757223 -57.4453125 67.76171875 C-58.42037671 56.73488963 -53.21519224 49.18177742 -47.67724609 40.04589844 C-45.85296227 37.0159784 -44.08429634 33.95825558 -42.32421875 30.890625 C-27.0284115 4.3035182 -27.0284115 4.3035182 -21.7734375 0.6953125 C-21.11988281 0.23125 -20.46632812 -0.2328125 -19.79296875 -0.7109375 C-13.18851778 -4.6538933 -6.48838758 -3.18845163 0 0 Z " fill="#FCBF06" transform="translate(179.9609375,386.8046875)"/>
<path d="M0 0 C6.40042673 2.73416287 9.56412861 8.40169471 12.57421875 14.421875 C13.3608466 21.71331005 11.96203107 27.562654 8.12890625 33.7578125 C4.30671813 37.7436417 -0.26156944 40.1065042 -5.05078125 42.796875 C-6.09661377 43.39467773 -7.14244629 43.99248047 -8.2199707 44.60839844 C-10.45301467 45.88480167 -12.68819305 47.15747672 -14.92529297 48.42675781 C-18.50356876 50.46061405 -22.06155706 52.52844077 -25.6171875 54.6015625 C-26.79795015 55.28868451 -27.9787763 55.97569741 -29.15966797 56.66259766 C-31.426349 57.9813298 -33.69232365 59.30127701 -35.95751953 60.62255859 C-36.99247559 61.22148926 -38.02743164 61.82041992 -39.09375 62.4375 C-40.00406982 62.96633789 -40.91438965 63.49517578 -41.85229492 64.04003906 C-47.76569177 67.21524314 -52.74113338 68.52469679 -59.42578125 67.421875 C-67.02509387 64.26908436 -71.3929981 60.09727624 -74.67578125 52.546875 C-76.2222549 46.10323477 -76.09343969 41.14842427 -72.76855469 35.40625 C-67.9458281 28.27913696 -59.5943459 24.39843505 -52.30078125 20.296875 C-50.5701974 19.31164891 -48.83961502 18.32642022 -47.10919189 17.34091187 C-45.35780454 16.34507812 -43.60447481 15.35274849 -41.85058594 14.36132812 C-38.6017106 12.52150308 -35.35988978 10.6699994 -32.12109375 8.8125 C-28.51570747 6.74496192 -24.91016601 4.67773956 -21.30078125 2.6171875 C-20.24503906 2.01414795 -20.24503906 2.01414795 -19.16796875 1.39892578 C-13.44822684 -1.80881065 -6.31407028 -1.50480258 0 0 Z " fill="#FCBF06" transform="translate(459.42578125,123.578125)"/>
<path d="M0 0 C6.79043842 3.6988567 9.61386742 9.11563992 13.296875 15.671875 C13.89467773 16.71770752 14.49248047 17.76354004 15.10839844 18.84106445 C16.38480167 21.07410842 17.65747672 23.3092868 18.92675781 25.54638672 C20.96061405 29.12466251 23.02844077 32.68265081 25.1015625 36.23828125 C25.78868451 37.4190439 26.47569741 38.59987005 27.16259766 39.78076172 C28.4813298 42.04744275 29.80127701 44.3134174 31.12255859 46.57861328 C31.72148926 47.61356934 32.32041992 48.64852539 32.9375 49.71484375 C33.46633789 50.62516357 33.99517578 51.5354834 34.54003906 52.47338867 C37.56479108 58.10658849 38.88638144 62.68716066 37.921875 69.046875 C35.63768981 75.90962782 32.41012337 80.73033733 25.921875 84.046875 C20.68393738 86.38723011 15.35512334 87.12460521 9.84375 85.39453125 C0.18456183 81.09951056 -4.24435731 71.74040878 -9.203125 62.921875 C-10.18832923 61.19022589 -11.17353664 59.45857856 -12.15908813 57.72712708 C-13.15477724 55.97524752 -14.14701707 54.22145091 -15.13867188 52.46728516 C-16.97470122 49.22927267 -18.82697348 46.00132921 -20.6875 42.77734375 C-21.77604183 40.88802093 -22.86458351 38.99869802 -23.953125 37.109375 C-24.45859863 36.23458496 -24.96407227 35.35979492 -25.48486328 34.45849609 C-25.94618652 33.6536377 -26.40750977 32.8487793 -26.8828125 32.01953125 C-27.28483887 31.32093994 -27.68686523 30.62234863 -28.10107422 29.90258789 C-31.04060224 24.31954129 -30.80338998 18.17607511 -30.078125 12.046875 C-27.68385631 5.77791194 -23.4178822 1.75535207 -17.4375 -1.14453125 C-11.3346151 -3.23608286 -5.90000059 -2.269231 0 0 Z " fill="#FCBF06" transform="translate(153.078125,41.953125)"/>
<path d="M0 0 C5.45963772 3.17420798 7.86129328 8.23858599 10 14 C11.3783791 19.86638145 9.27039624 24.3647867 6.6796875 29.60546875 C1.86439289 36.47006316 -5.93322383 40.0299983 -13.0625 44.0625 C-14.80084683 45.05447474 -16.5391926 46.04645134 -18.27742004 47.03863525 C-20.0383215 48.0425463 -21.8007544 49.04372353 -23.56347656 50.04443359 C-26.80650182 51.88988914 -30.0415465 53.74841094 -33.2734375 55.61328125 C-35.16142309 56.70058203 -37.04944203 57.7878249 -38.9375 58.875 C-40.24956421 59.6330896 -40.24956421 59.6330896 -41.58813477 60.40649414 C-42.39307373 60.86789795 -43.1980127 61.32930176 -44.02734375 61.8046875 C-44.72593506 62.20671387 -45.42452637 62.60874023 -46.14428711 63.02294922 C-51.73064169 65.96421892 -57.86733323 65.71856072 -64 65 C-69.66921065 62.90916867 -73.11265655 59.45947283 -76.0625 54.25 C-78.65128916 48.23354576 -79.27508068 42.88899607 -77.21875 36.6171875 C-72.32749687 26.3106184 -60.48755754 21.41032627 -50.9375 16.1875 C-42.61768233 11.59054836 -34.35081466 6.93595459 -26.21459961 2.02026367 C-17.05877684 -3.46232879 -9.7009886 -4.78777239 0 0 Z " fill="#FCBF06" transform="translate(118,324)"/>
<path d="M0 0 C4.67243815 1.57228432 7.59466937 3.66971793 10.8046875 7.50390625 C11.5678125 8.32890625 12.3309375 9.15390625 13.1171875 10.00390625 C16.20860974 16.41574496 16.05073734 22.91870148 13.72265625 29.6171875 C11.92030366 33.3542173 9.90127513 36.92783391 7.8046875 40.50390625 C6.71557457 42.40201608 5.62708177 44.30048181 4.5390625 46.19921875 C1.55110355 51.38559362 -1.48614387 56.54131402 -4.53857422 61.68994141 C-5.99993236 64.17205369 -7.43471794 66.66638785 -8.85546875 69.171875 C-17.25380559 83.85673728 -17.25380559 83.85673728 -25.1953125 86.50390625 C-33.07975975 87.30451208 -39.93252966 87.5584682 -46.3515625 82.46875 C-50.56845736 77.97489807 -53.30117287 72.53844834 -54.0078125 66.37890625 C-53.266466 54.9581628 -43.7518888 42.74514865 -37.96875 33.1640625 C-35.9018066 29.73041469 -33.92986225 26.25384453 -31.984375 22.75 C-31.15039185 21.27394287 -31.15039185 21.27394287 -30.29956055 19.76806641 C-29.21705718 17.85105077 -28.14984788 15.92528843 -27.10083008 13.98974609 C-21.14473086 3.56728321 -12.21147422 -2.75953243 0 0 Z " fill="#FCBF06" transform="translate(374.1953125,40.49609375)"/>
<path d="M0 0 C5.36364789 2.36417101 8.623113 6.41374815 11.57421875 11.38671875 C12.64952139 14.61262666 12.72052664 16.98994343 12.7512207 20.38354492 C12.77047356 22.23643379 12.77047356 22.23643379 12.79011536 24.12675476 C12.79828513 25.47772824 12.80572841 26.82870629 12.8125 28.1796875 C12.81657553 28.86200251 12.82065105 29.54431751 12.82485008 30.24730873 C12.84569736 33.86156535 12.86000263 37.47578419 12.86938477 41.09008789 C12.88042302 44.80785174 12.91479579 48.52501273 12.95455647 52.2425642 C12.98081388 55.11407009 12.98908479 57.98543459 12.99266624 60.85704994 C12.99751181 62.22648484 13.00906751 63.59591429 13.02770424 64.96523094 C13.14141829 73.87697854 12.85205162 80.42940907 6.828125 87.41015625 C1.01100343 92.05847972 -3.31962695 93.8859641 -10.8671875 93.6953125 C-17.62626402 92.88009564 -21.95443418 89.3759662 -26.19921875 84.265625 C-28.99640681 79.98076048 -29.6806242 76.23660217 -29.71630859 71.1628418 C-29.7290683 69.92773361 -29.741828 68.69262543 -29.75497437 67.42008972 C-29.75803258 66.07954058 -29.76026004 64.73898933 -29.76171875 63.3984375 C-29.76815264 62.01227178 -29.77488144 60.62610739 -29.78189087 59.23994446 C-29.79384568 56.33742121 -29.79757364 53.43501682 -29.79638672 50.5324707 C-29.79618381 46.8304127 -29.82346362 43.12912478 -29.85793114 39.42724895 C-29.88027542 36.56430122 -29.88422196 33.70153648 -29.88316727 30.83851051 C-29.88551278 29.47467207 -29.89427666 28.11082778 -29.909832 26.74707603 C-29.99131696 18.86432252 -29.78128478 13.08297638 -25.42578125 6.38671875 C-23.35546875 4.328125 -23.35546875 4.328125 -21.30078125 2.94921875 C-20.27597656 2.23958984 -20.27597656 2.23958984 -19.23046875 1.515625 C-13.66714094 -1.96446534 -6.25065963 -1.58027949 0 0 Z " fill="#FDC006" transform="translate(264.42578125,408.61328125)"/>
<path d="M0 0 C1.23525925 -0.01283524 2.47051849 -0.02567047 3.74320984 -0.03889465 C5.09418332 -0.04706443 6.44516136 -0.0545077 7.79614258 -0.0612793 C8.81961509 -0.06739259 8.81961509 -0.06739259 9.86376381 -0.07362938 C13.47802043 -0.09447666 17.09223927 -0.10878192 20.70654297 -0.11816406 C24.42430682 -0.12920231 28.14146781 -0.16357509 31.85901928 -0.20333576 C34.73052516 -0.22959317 37.60188967 -0.23786409 40.47350502 -0.24144554 C41.84293992 -0.24629111 43.21236937 -0.2578468 44.58168602 -0.27648354 C53.49343362 -0.39019759 60.04586415 -0.10083091 67.02661133 5.9230957 C71.6749348 11.74021727 73.50241918 16.07084765 73.31176758 23.6184082 C72.49655072 30.37748472 68.99242128 34.70565489 63.88208008 38.95043945 C59.59721556 41.74762752 55.85305725 42.4318449 50.77929688 42.4675293 C49.54418869 42.480289 48.30908051 42.49304871 47.0365448 42.50619507 C45.69599566 42.50925328 44.35544441 42.51148074 43.01489258 42.51293945 C41.62872685 42.51937335 40.24256247 42.52610214 38.85639954 42.53311157 C35.95387629 42.54506638 33.05147189 42.54879434 30.14892578 42.54760742 C26.44686778 42.54740451 22.74557986 42.57468433 19.04370403 42.60915184 C16.1807563 42.63149612 13.31799156 42.63544266 10.45496559 42.63438797 C9.09112715 42.63673348 7.72728286 42.64549737 6.36353111 42.6610527 C-1.52065933 42.74255252 -7.29794 42.52965743 -13.99682617 38.17700195 C-16.05541992 36.1418457 -16.05541992 36.1418457 -17.43432617 34.11450195 C-18.14395508 33.10709961 -18.14395508 33.10709961 -18.86791992 32.0793457 C-22.08849103 26.65229334 -21.62362344 20.26486044 -20.99682617 14.17700195 C-18.79457449 7.96526962 -14.48001169 4.52783755 -8.99682617 1.17700195 C-5.77091826 0.10169932 -3.39360149 0.03069406 0 0 Z " fill="#FDC006" transform="translate(428.996826171875,234.822998046875)"/>
<path d="M0 0 C1.25520447 -0.0127597 2.51040894 -0.02551941 3.8036499 -0.03866577 C5.17150722 -0.04172419 6.53936661 -0.04395154 7.90722656 -0.04541016 C9.31724176 -0.0518418 10.72725563 -0.05857044 12.13726807 -0.06558228 C15.09284556 -0.07754979 18.04830624 -0.08126384 21.00390625 -0.08007812 C24.77436899 -0.07987539 28.54407413 -0.10713154 32.31435776 -0.14162254 C35.22791925 -0.16396679 38.1413009 -0.16791333 41.05493927 -0.16685867 C42.443897 -0.1692051 43.83286042 -0.17797424 45.22173309 -0.19352341 C53.16527817 -0.27410234 59.05475456 -0.1171006 65.79785156 4.29052734 C67.85644531 6.36083984 67.85644531 6.36083984 69.23535156 8.41552734 C69.7084375 9.09873047 70.18152344 9.78193359 70.66894531 10.48583984 C73.90857636 15.6647656 73.29243891 21.34154719 72.79785156 27.29052734 C71.13991206 33.25910954 67.80141014 36.81867037 62.79785156 40.29052734 C58.9202714 42.17077309 55.77419903 42.55547388 51.48217773 42.59692383 C50.2270488 42.61291122 48.97191986 42.62889862 47.67875671 42.64537048 C46.31611541 42.65174835 44.95346918 42.65714072 43.59082031 42.66162109 C42.1822348 42.67059717 40.7736502 42.67971919 39.36506653 42.6889801 C36.41547333 42.70544139 33.46599325 42.71316481 30.51635742 42.71606445 C26.75362258 42.72144196 22.99196451 42.75910603 19.2295332 42.80480862 C16.32025867 42.83468818 13.4112399 42.84179036 10.50182533 42.8427906 C9.11563504 42.84697228 7.72944253 42.85932358 6.34340477 42.88030815 C-1.73277148 42.99284062 -8.003455 42.87556653 -14.20214844 37.29052734 C-19.02610449 32.56433342 -21.47287646 27.75681768 -21.63964844 20.97802734 C-21.50721052 14.41793599 -19.248599 10.34476934 -14.67480469 5.75927734 C-9.83045124 1.51892725 -6.40142905 0.04420699 0 0 Z " fill="#FDBF06" transform="translate(31.2021484375,234.70947265625)"/>
<path d="M0 0 C5.88463859 2.4947048 10.41147461 8.16786091 12.8125 14 C13.07992554 16.81217957 13.07992554 16.81217957 13.10302734 20.09448242 C13.11578705 21.32643845 13.12854675 22.55839447 13.14169312 23.8276825 C13.14475191 25.17027631 13.14697906 26.51287224 13.1484375 27.85546875 C13.15487004 29.24066809 13.16159874 30.62586609 13.16860962 32.01106262 C13.18057783 34.91536605 13.18429121 37.81955061 13.18310547 40.72387695 C13.18290294 44.4247455 13.21013753 48.12484043 13.24464989 51.82552624 C13.26702289 54.68851639 13.27093977 57.5513239 13.26988602 60.41439247 C13.27336023 62.43551459 13.29496723 64.45657968 13.31698608 66.47758484 C13.27620143 74.74762558 12.66087035 81.92264792 6.77734375 88.15625 C6.10832031 88.5996875 5.43929687 89.043125 4.75 89.5 C3.74259766 90.19609375 3.74259766 90.19609375 2.71484375 90.90625 C-2.7610521 94.05460901 -9.08547169 93.73535451 -15.1875 93 C-21.72929854 90.36445527 -25.28796005 86.28233656 -28.1875 80 C-28.5175 79.34 -28.8475 78.68 -29.1875 78 C-29.3045148 76.01070199 -29.35725119 74.01750479 -29.38037109 72.02490234 C-29.39643402 70.76954681 -29.41249695 69.51419128 -29.42904663 68.22079468 C-29.44053733 66.84251586 -29.45114532 65.46422944 -29.4609375 64.0859375 C-29.46626118 63.39167286 -29.47158485 62.69740822 -29.47706985 61.98210526 C-29.50380729 58.30302281 -29.52317495 54.62397427 -29.53759766 50.94482422 C-29.5509047 47.90870822 -29.57869439 44.8732695 -29.61962891 41.83740234 C-29.66914192 38.16510067 -29.69374196 34.49341051 -29.70082474 30.82078934 C-29.70750913 29.42620801 -29.72265767 28.03163881 -29.74671555 26.63724899 C-29.87831853 18.54379523 -29.81868434 12.20134222 -24.1875 6 C-17.09492368 -1.06741165 -9.65569139 -2.91741163 0 0 Z " fill="#FDC006" transform="translate(264.1875,11)"/>
</svg>
